<?xml version="1.0" encoding="utf-8"?>
<!-- Generator: Adobe Illustrator 18.1.1, SVG Export Plug-In . SVG Version: 6.00 Build 0)  -->
<svg version="1.1" id="Layer_1" xmlns="http://www.w3.org/2000/svg" xmlns:xlink="http://www.w3.org/1999/xlink" x="0px" y="0px"
	 width="335.1px" height="69.2px" viewBox="0 0 335.1 69.2" enable-background="new 0 0 335.1 69.2" xml:space="preserve">
<g>
	<path fill="#FCCEC8" d="M24.4,27.1c-3.5-8.4-7-16.7-10.5-25.1C13-0.2,10-0.4,9.2,2c-3,8.4-6,16.7-9,25.1c-1.1,3,3.7,4.3,4.7,1.3
		c0.7-2,1.4-4,2.2-6c0.3,0.2,0.7,0.3,1.2,0.3h6.1c1.2,0,1.9-0.7,2.2-1.6c1,2.4,2,4.9,3.1,7.3C20.9,31.3,25.7,30,24.4,27.1z
		 M14.4,17.8H8.7c1-2.8,2-5.6,3-8.4c1.2,2.9,2.4,5.7,3.6,8.6C15,17.9,14.7,17.8,14.4,17.8z"/>
	<path fill="#FCCEC8" d="M55.7,19.2c-0.5-3.7-3.2-6.1-6.8-6.4c-1.1-0.1-2.6,0.4-3.7,0.1c-1.4,0.3-2-0.5-1.8-2.2
		c0.2-0.4,0.5-0.8,0.9-1c1.5-1.7,4.2-1.5,5.9-0.4c2.6,1.7,5.1-2.5,2.5-4.2c-5.7-3.8-16.2,0.6-14.4,8.3c1,4.4,5.4,4.3,9.1,4.4
		c1.2,0,2.4-0.2,3.2,0.9c0.6,0.9,0.6,2.4,0,3.3c-1.6,2.4-5.1,1.3-6.8-0.3c-2.3-2.2-5.8,1.3-3.5,3.5C45.8,30.4,56.9,28.4,55.7,19.2z"
		/>
	<path fill="#FCCEC8" d="M71.5,22.7c-1.9,0.3-3.9,0.4-5.9,0.1c-3.1-0.4-2.7-1.8-2.7-4.4c0-3.9,0-7.8,0-11.7c0-3.2-4.9-3.2-4.9,0
		c0,3.4,0,6.8,0,10.2c0,2.4-0.6,5.7,0.7,7.9c2.5,4.1,10.1,3.2,14,2.6C75.9,27,74.6,22.2,71.5,22.7z"/>
	<path fill="#FCCEC8" d="M83.6,4.6c-2.8-1.2-5.6-0.7-7.8,0.9c0,0-0.1,0-0.1,0c-5.9,1-5.6,8.7-2.6,12.3c3.7,4.4,10.4,4.3,13.9-0.2
		C90.5,13.3,88.6,6.8,83.6,4.6z M83.1,14.7c-1.4,1.7-3.8,2-5.5,0.7c-0.4-0.3-0.8-0.9-1.2-1.5c0.4-0.4,0.6-0.9,0.7-1.6
		c0.1-2.2,2.5-4.2,4.7-3.1C83.9,10.1,84.6,12.9,83.1,14.7z"/>
	<path fill="#FCCEC8" d="M104.2,3.3c-4.4-0.6-8.7-0.4-13,0.2C88,4,89.4,8.8,92.5,8.3c0.9-0.1,1.9-0.2,2.8-0.3
		c0.4,4.5,0.5,9,0.2,13.5c-0.1,1.2,0.6,1.9,1.4,2.2c0.3,0.2,0.7,0.3,1.1,0.3c1.3,0,2.1-0.9,2.3-1.9c0,0,0,0,0,0c0-0.1,0-0.1,0-0.2
		c0-0.1,0-0.2,0.1-0.4c0.2-4.5,0.2-9-0.2-13.5c0,0,0,0,0,0c1.3,0.1,2.7,0.2,4,0.3C107.3,8.7,107.3,3.7,104.2,3.3z"/>
	<path fill="#FCCEC8" d="M126.2,23.3c-0.6-5.3-1.3-10.6-1.9-16c-0.4-3.1-5.3-3.1-4.9,0c0.2,1.3,0.3,2.6,0.5,4
		c-1.9,0.1-3.9,0.2-5.8,0.3c0-2.1,0-4.1-0.1-6.2c-0.1-3.2-5-3.2-4.9,0c0.2,5.7,0.2,11.5-0.2,17.2c-0.2,3.2,4.7,3.1,4.9,0
		c0.1-2.1,0.2-4.1,0.3-6.2c2.2-0.1,4.3-0.2,6.5-0.4c0.3,2.4,0.6,4.7,0.8,7.1C121.6,26.4,126.6,26.5,126.2,23.3z"/>
	<path fill="#FCCEC8" d="M146.5,21.6c-3.9-0.5-7.7-0.6-11.6-0.2c0-4.5,0.2-8.9,0.7-13.4c0.4-3.1-4.6-3.1-4.9,0
		c-0.6,5.4-0.8,10.8-0.7,16.2c0.1,1.7,1.5,2.6,3.1,2.4c4-0.7,8-0.8,12-0.2C148.3,26.7,149.6,22,146.5,21.6z"/>
	<path fill="#FCCEC8" d="M162.5,10.1c3.1,0.5,4.4-4.2,1.3-4.7c-3.5-0.6-7-0.8-10.5-0.4c-1.4,0.1-2.2,1.2-2.3,2.3
		c-0.7,0.4-1.2,1-1.3,1.9c-0.3,3-0.6,5.9-0.7,8.9c-0.1,1.8-0.2,3.7,0.8,5.4c2.6,4.4,7.5,2.2,11.5,2.9c3.1,0.6,4.4-4.2,1.3-4.7
		c-1.7-0.3-3.2-0.2-4.9-0.1c-1.7,0.1-3.4,0.5-3.8-1.5c-0.2-0.9-0.1-2,0-3c1.8,0.3,3.7,0.4,5.5,0.1c1.3-0.2,2.5-1,2.5-2.5
		c0-1.2-1.1-2.6-2.5-2.5c-1.7,0.2-3.4,0.2-5.1-0.2c0.1-0.8,0.2-1.5,0.2-2.3C157.2,9.6,159.9,9.7,162.5,10.1z"/>
	<path fill="#FCCEC8" d="M183.5,19.1c-1-2.3-3.2-3.4-5.5-4.1c-1.3-0.4-3-0.4-4.2-1.1c-3.3-2,0-4.7,2.7-3.7c3,1.1,4.3-3.6,1.3-4.7
		c-5.9-2.2-12.7,3.2-9.7,9.5c1.2,2.6,3.8,3.6,6.5,4.3c0.7,0.2,4.3,0.6,4.1,1.7c-0.3,1.6-6.1,1.4-7.1,1.3c-3.1-0.4-3.1,4.6,0,4.9
		C176.1,27.8,186.3,25.7,183.5,19.1z"/>
	<path fill="#FCCEC8" d="M198.4,17.5c-0.6-2.7-2.6-4.4-5.2-5.1c-1.5-0.4-3.8,0.1-4.5-1.4c-1.2-2.5,2.9-3.1,4.5-3.2
		c3.1-0.2,3.2-5.1,0-4.9c-4.8,0.3-10.5,2.8-9.8,8.6c0.3,2.3,1.8,4,3.9,4.8c1.2,0.5,2.5,0.3,3.8,0.7c0.8,0.2,2.1,0.4,2.4,1.4
		c0.5,1.6-1.2,2.6-2.6,2c-2.8-1.4-5.3,2.9-2.5,4.2C193.5,27,199.7,23.4,198.4,17.5z"/>
	<path fill="#FCCEC8" d="M236.9,22.9c-2.1,0.3-4.3,0.5-6.4,0.5c-0.3,0-3.1,0.4-2.9,0.6c-0.4-0.3,0-3.1,0-3.5c0-4.4,0.1-8.8,0.2-13.2
		c0.1-3.2-4.8-3.2-4.9,0c-0.1,3.2-0.2,6.5-0.2,9.7c0,2.6-0.6,6.1,0.3,8.6c1.6,4.6,10.5,2.7,13.9,2.2C240,27.4,240.1,22.5,236.9,22.9
		z"/>
	<path fill="#FCCEC8" d="M247.6,23.9c-0.6-4.5-1.3-9.1-1.9-13.6c-0.4-3.1-5.2-1.8-4.7,1.3c0.6,4.5,1.3,9.1,1.9,13.6
		C243.3,28.4,248,27,247.6,23.9z"/>
	<path fill="#FCCEC8" d="M242.9,0.7c-1-0.9-2.5-1-3.5,0l-0.6,0.6c-0.9,0.9-1,2.6,0,3.5c1,0.9,2.5,1,3.5,0c0.2-0.2,0.4-0.4,0.6-0.6
		C243.8,3.3,243.9,1.6,242.9,0.7z"/>
	<path fill="#FCCEC8" d="M265.7,4.3c-4,0.7-8,1.4-12,2.1c-1.4-0.4-3.3,0.3-3.3,2.2c0.1,6,0.7,12,1.7,17.9c0.5,3.1,5.3,1.8,4.7-1.3
		c-0.3-1.6-0.5-3.2-0.7-4.8c2,0.1,4-0.2,5.9-0.7c3-0.8,1.8-5.6-1.3-4.7c-1.7,0.5-3.4,0.6-5.1,0.5c-0.1-1.5-0.2-2.9-0.3-4.4
		c3.8-0.7,7.7-1.3,11.5-2C270.1,8.5,268.8,3.7,265.7,4.3z"/>
	<path fill="#FCCEC8" d="M285.4,4.9c-5-0.1-9.9,0.3-14.8,1.1c-2.3,0.4-2.2,3-0.7,4.2c-0.3,0.4-0.4,0.8-0.4,1.4
		c0,4.3,0.1,8.5,0.1,12.8c0,1.4,1.1,2.4,2.5,2.5l11,0.7c3.2,0.2,3.1-4.7,0-4.9l-8.5-0.5c0-0.8,0-1.6,0-2.4c2.6,0,5.2-0.7,7.5-2
		c2.8-1.6,0.3-5.8-2.5-4.2c-1.6,0.9-3.3,1.3-5.1,1.3c0-1,0-2.1,0-3.1c0-0.5-0.1-0.9-0.3-1.2c3.8-0.5,7.6-0.7,11.4-0.6
		C288.6,9.9,288.6,5,285.4,4.9z"/>
	<path fill="#FCCEC8" d="M315.3,12.7c0-3.2-5-3.2-4.9,0c0.1,3.8,0.1,7.6,0.2,11.5c0,3.2,5,3.2,4.9,0
		C315.4,20.3,315.3,16.5,315.3,12.7z"/>
	<path fill="#FCCEC8" d="M312,1.6c-3.2,0-3.2,4.9,0,4.9C315.2,6.5,315.2,1.6,312,1.6z"/>
	<path fill="#FCCEC8" d="M329.7,13.9c-0.7-0.1-1.5-0.2-2.2-0.2c-1.4-0.1-3.7-0.7-3.9-2.6c-0.4-2.7,4.3-3.5,5.9-3.1
		c3.1,0.8,4.4-4,1.3-4.7c-5.7-1.5-12.3,2.3-12.2,8.7c0.1,3,1.9,5.3,4.8,6.2c1.6,0.5,3.9-0.2,5.4,0.5c3.1,1.4-2.9,4.5-3.8,2.5
		c-1.4-2.9-5.6-0.4-4.2,2.5c3,6.4,13.7,2.2,14.4-3.8C335.4,16.6,332.6,14.5,329.7,13.9z"/>
	<path fill="#FCCEC8" d="M26.6,65c-3-6.8-6.4-13.4-10.1-19.8c-1-1.8-4-1.5-4.5,0.6C10.4,52.4,8.9,59,7.5,65.6
		c-0.6,3.1,4.1,4.4,4.7,1.3c0.3-1.6,0.7-3.1,1-4.7c0.1,0,0.2,0,0.3,0c2.2,0,4.3,0,6.5,0c0.8,1.7,1.6,3.4,2.4,5.2
		C23.7,70.3,27.9,67.8,26.6,65z M14.4,57.3c0.3-1.4,0.6-2.8,1-4.2c0.8,1.4,1.5,2.8,2.2,4.2C16.5,57.3,15.4,57.3,14.4,57.3z"/>
	<path fill="#FCCEC8" d="M62,66.2c-1.5-6.3-2.4-12.6-2.7-19c-0.2-2.9-3.8-3.2-4.8-0.7c-1.3,3.1-2.5,6.3-3.8,9.4
		c-2.3-2.8-4.4-5.7-6.4-8.7c-0.2-1.4-1.4-2.1-2.6-2.1c-1.3-0.1-2.6,0.8-2.6,2.4c0,6.1,0,12.2,0,18.3c0,3.2,4.7,3.1,4.9,0
		c0.2-3.4,0.4-6.7,0.4-10.1c1.7,2.2,3.5,4.4,5.3,6.6c1.3,1.6,3.5,0.5,4.1-1.1c0.5-1.3,1-2.6,1.6-3.9c0.5,3.4,1.1,6.8,1.9,10.1
		C58,70.6,62.8,69.3,62,66.2z"/>
	<path fill="#FCCEC8" d="M77.3,59.8c-1.5,0.1-3,0.3-4.4,0.4c-0.9,0.1-1.8,0.2-2.7,0.3c-0.5,0.1-1.3,0.2-1.4,0c0,0,0-2,0-2
		c0-0.5-0.1-1.1-0.1-1.6c1.6,0,3.2-0.2,4.8-0.4c1.3-0.2,2-1.8,1.7-3c-0.4-1.4-1.7-1.9-3-1.7c-1.2,0.2-2.5,0.3-3.7,0.3
		c0-0.3,0-0.6,0-0.9c-0.1-1-0.6-1.7-1.3-2c3.1-0.1,6.3-0.1,9.4,0.1c3.2,0.2,3.1-4.7,0-4.9c-3.7-0.2-7.4-0.2-11.1,0
		c-2.8,0.2-3.1,4.1-0.9,4.8c-0.7,0.4-1.2,1-1.1,2.1c0,0.8,0.1,1.5,0.1,2.3c-0.1,0.3-0.2,0.6-0.2,1c0,0.5,0.1,0.9,0.3,1.2
		c0.1,1,0.1,1.9,0.2,2.9c0.1,1.9,0,4,1.3,5.5c1.3,1.6,3.2,1.5,5,1.3c2.4-0.2,4.7-0.5,7.1-0.7C80.4,64.4,80.4,59.5,77.3,59.8z"/>
	<path fill="#FCCEC8" d="M100.6,63.2c-2.3-6.4-5.2-12.5-8.6-18.3c-1.4-2.4-4.9-0.8-4.6,1.5c-1.1-0.1-2.2,0.4-2.7,1.6
		c-1.9,5-3,10.1-3.6,15.5c-0.3,3.1,4.6,3.1,4.9,0c0.2-1.5,0.4-3.1,0.7-4.6c0,0,0,0,0,0c2.4,0.2,4.7,0.3,7.1,0.5
		c0.7,1.7,1.4,3.4,2,5.1C96.9,67.5,101.7,66.2,100.6,63.2z M87.9,54.1c0.4-1.4,0.8-2.7,1.3-4.1c0.8,1.4,1.5,2.9,2.3,4.3
		C90.3,54.3,89.1,54.2,87.9,54.1z"/>
	<path fill="#FCCEC8" d="M122.9,61.5c-1.2-5.1-2.4-10.3-3.5-15.4c-0.7-3.1-5.5-1.8-4.7,1.3c0.5,2.4,1.1,4.7,1.6,7.1
		c-2.8-3.4-5.3-7-9.2-9.4c-0.5-0.3-1.1-0.4-1.5-0.3c-1.3-0.1-2.7,0.6-2.5,2.3c0.6,5.9,1.4,11.7,2.4,17.5c0.5,3.1,5.3,1.8,4.7-1.3
		c-0.6-3.5-1.1-7.1-1.5-10.6c3.6,3.7,6.3,8.5,10.6,11.6C121.2,65.6,123.4,63.4,122.9,61.5z"/>
	<path fill="#FCCEC8" d="M130.3,52c-0.3-3.1-5.2-3.2-4.9,0l0.9,10.6c0.3,3.1,5.2,3.2,4.9,0L130.3,52z"/>
	<path fill="#FCCEC8" d="M128.3,39.7c-1.3,0.1-2.5,1.1-2.5,2.5v0.4c0,1.3,1.1,2.5,2.5,2.5c1.3-0.1,2.5-1.1,2.5-2.5v-0.4
		C130.8,40.9,129.6,39.7,128.3,39.7z"/>
	<path fill="#FCCEC8" d="M153.4,48.9c1.7-1.7,0.4-5.2-2.2-4.2c-2.8,1.1-2.6,3.6-2.6,6.3c0,2.3,0,4.6,0,6.8c-1.1-1.8-2.1-3.6-2.4-4.1
		l-5-7.7c-0.8-1.2-2-1.3-3.1-0.9c-1.6-0.6-3.9,0.7-3.4,2.9c1.2,4.7,1.7,9.4,1.8,14.2c0,3.2,4.9,3.2,4.9,0c0-2.5-0.2-5.1-0.5-7.6
		l3.5,5.4c1.6,2.5,3.1,6.3,6.6,6.2c1.3,0,2.5-1.1,2.5-2.5c0-2.8,0-5.5,0-8.3C153.5,54,153,50.4,153.4,48.9z"/>
	<path fill="#FCCEC8" d="M173.2,56.9c0.3-0.1,0.6-0.3,0.8-0.4c0.9-0.5,1.5-1.7,1.1-2.8c-0.3-1-1.3-1.9-2.4-1.8
		c-0.4,0-0.8,0.1-1.3,0.1c-0.7,0.1-1.4,0.4-1.8,0.9c0,0,0,0,0,0c-0.9,0.1-1.5,1-1.7,1.8c0,0.1,0,0.1-0.1,0.2c0,0.1,0,0.1,0,0.2
		c0,0.1,0,0.2,0,0.3c0,0,0,0.1,0,0.1c0,0.1,0,0.3,0.1,0.4c0.3,1.4,0.7,2.9,1,4.3c-2.6,1.4-5.5-1.5-5.7-4c-0.3-2.9,1.6-7.1,5-6.8
		c3.1,0.3,3.1-4.6,0-4.9c-7.1-0.7-11.3,8-9.6,14c1.4,5.2,6.7,7.8,11.4,6.3l0.1,0.5c0.7,3.1,5.5,1.8,4.7-1.3
		C174.3,61.7,173.8,59.3,173.2,56.9z"/>
	<path fill="#FCCEC8" d="M191,61.6c-2.2-0.4-4.4-0.5-6.6-0.4c-0.7-5-0.8-10-0.2-15.1c0-0.1,0-0.2,0-0.3c0-0.1,0-0.2,0-0.4
		c0.2-3.2-4.6-3.1-4.9,0c-0.7,6.4-0.5,12.7,0.7,19c0.3,1.4,1.8,1.9,3,1.7c2.3-0.3,4.4-0.3,6.7,0.1C192.8,66.9,194.1,62.2,191,61.6z"
		/>
	<path fill="#FCCEC8" d="M208.8,59.4c-1.7,0-3.4,0.1-5.2,0c-0.4,0-2.3,0.2-2.7-0.1c-0.5-0.3-0.4-1.5-0.4-2c1.8-0.1,3.6-0.3,5.4-0.4
		c1.3-0.1,2.5-1.1,2.5-2.5c0-1.3-1.1-2.6-2.5-2.5c-2,0.1-3.9,0.3-5.9,0.4c-0.2-1.2-0.4-2.4-0.7-3.6c1.8-0.1,3.6-0.2,5.4-0.4
		c3.1-0.2,3.2-5.1,0-4.9l-7.4,0.5c-1.8,0.1-2.5,1.7-2.3,3c-0.5,0.5-0.8,1.3-0.6,2.3c0.7,2.5,1.1,4.9,1.2,7.5c0.1,1.8,0,3.7,1.1,5.3
		c2.4,3.4,8.5,2.3,12.1,2.2C211.9,64.2,211.9,59.3,208.8,59.4z"/>
	<path fill="#FCCEC8" d="M229.9,58.7c-0.5-3.9-4.2-4.5-7.5-5.3c-1.5-0.4-5.9-0.6-5.7-2.4c0.2-2.3,3.6-3.2,5.3-2.8
		c3.1,0.7,4.4-4,1.3-4.7c-5.5-1.3-13.1,3.2-11.7,9.7c0.8,3.6,5.2,3.9,8.1,4.6c1.5,0.4,6.7,0.5,4.6,3.1c-1.5,1.8-4.1,1.3-5.7,0.2
		c-2.5-1.9-5,2.4-2.5,4.2C221.4,69.1,230.9,65.9,229.9,58.7z"/>
	<path fill="#FCCEC8" d="M244.9,52.5c-1.8-1-3.9-1.5-5.9-2.2c-0.6-0.2-3.4-0.8-3.4-1.2c-0.3-1.3,2.1-1.6,2.9-1.5
		c3.1,0.7,4.4-4.1,1.3-4.7c-4.5-1-10.8,2.6-8.9,8c0.9,2.6,4,3.1,6.3,3.9c1.3,0.4,4.5,0.9,5.3,1.9c1.5,1.9-2.5,3.7-4.2,3.2
		c-0.7-2.4-4.8-2.1-4.8,0.8c0.1,7.3,12.2,3.8,14.1-0.9C248.6,57,247.5,54,244.9,52.5z"/>
	<path fill="#FCCEC8" d="M272.7,61.3c-0.9,0.1-2.5,0-3.6,0.2c0.1-1-0.1-2.2-0.1-3.3l-0.4-11.2c-0.1-3.2-5-3.2-4.9,0
		c0.1,2.9,0.2,5.7,0.3,8.6c0.1,2.5-0.2,5.4,0.3,7.9c0.8,4.3,5.1,3.1,8.4,2.7C275.8,65.9,275.8,61,272.7,61.3z"/>
	<path fill="#FCCEC8" d="M283.6,62.8c-0.7-3-1-6.1-1.1-9.2c-0.1-3.2-5-3.2-4.9,0c0.1,3.5,0.5,7,1.3,10.5
		C279.5,67.2,284.3,65.9,283.6,62.8z"/>
	<path fill="#FCCEC8" d="M278.8,41.4c-3.2,0-3.2,4.9,0,4.9C282,46.3,282,41.4,278.8,41.4z"/>
	<path fill="#FCCEC8" d="M298.5,48.4c3.2,0,3.2-4.9,0-4.9c-3.3,0-6.6-0.1-9.8-0.1c-1.6,0-2.4,1.2-2.4,2.4c-1,0.4-1.7,1.5-1.4,2.8
		c1.2,4.9,2.3,9.9,3.4,14.8c0.3,1.2,1.1,1.7,2.1,1.8c0.1,0,0.2,0,0.3,0c1.6,0,2.4-1.2,2.4-2.5c0-0.2,0-0.4-0.1-0.6
		c-0.3-1.3-0.6-2.5-0.8-3.8c1.5,0,3-0.2,4.5-0.5c1.3-0.2,2-1.8,1.7-3c-0.4-1.4-1.7-2-3-1.7c-1.4,0.3-2.9,0.3-4.3,0.3
		c-0.4-1.7-0.8-3.4-1.2-5.1C292.8,48.3,295.6,48.3,298.5,48.4z"/>
	<path fill="#FCCEC8" d="M322.2,60.6c-2.5,0-5,0.1-7.5,0.1c-1.2,0-2.5,0-3.7,0.1c-0.6,0-1.2,0-1.9,0c-0.1,0-0.2,0-0.3,0
		c-0.3-1.2-0.4-2.8-0.3-4.2c2.3,0.2,4.5,0.3,6.8,0.3c3.2,0,3.2-4.9,0-4.9c-2.3,0-4.6-0.1-6.9-0.3c0-0.7,0-1.5,0-2.2
		c3.4-0.4,6.8-0.4,10.2-0.2c3.2,0.2,3.2-4.7,0-4.9c-3.4-0.2-6.8-0.1-10.3,0.3c-0.5,0.1-0.9,0.2-1.2,0.5c-1.4-0.7-3.6,0-3.6,2.1
		c0,3.4,0,6.7,0.3,10.1c0.2,2.2-0.1,5.4,1.4,7.1c1.5,1.7,3.8,1.4,5.8,1.3c3.7-0.1,7.5-0.1,11.2-0.2
		C325.3,65.4,325.4,60.5,322.2,60.6z"/>
</g>
</svg>
