<?xml version="1.0" encoding="utf-8"?>
<!-- Generator: Adobe Illustrator 18.1.1, SVG Export Plug-In . SVG Version: 6.00 Build 0)  -->
<svg version="1.1" id="Layer_1" xmlns="http://www.w3.org/2000/svg" xmlns:xlink="http://www.w3.org/1999/xlink" x="0px" y="0px"
	 width="259.1px" height="60.3px" viewBox="0 0 259.1 60.3" enable-background="new 0 0 259.1 60.3" xml:space="preserve">
<g>
	<path fill="#FCCEC8" d="M5.9,23.8c-0.8-3.5-1-7.1-0.9-10.7c0.1-3.2-4.9-3.2-5,0c-0.1,4,0.2,8,1.1,12C1.8,28.3,6.6,27,5.9,23.8z"/>
	<path fill="#FCCEC8" d="M4.6,0.7c-1-0.9-2.5-1-3.5,0C1,0.8,0.9,0.9,0.8,1c-0.9,0.9-1,2.6,0,3.5c1,0.9,2.5,1,3.5,0
		c0.1-0.1,0.2-0.2,0.3-0.3C5.6,3.3,5.6,1.6,4.6,0.7z"/>
	<path fill="#FCCEC8" d="M22.5,6.3c-4.6,0.8-9.3,0.9-14,0.5c-3.2-0.3-3.2,4.7,0,5C9.7,11.9,10.9,12,12,12c-0.2,4.7,0.4,9.3,1.5,13.9
		c0.8,3.1,5.6,1.8,4.8-1.3c-1.1-4.2-1.5-8.4-1.3-12.6c2.3-0.1,4.6-0.4,6.8-0.8C27,10.7,25.7,5.8,22.5,6.3z"/>
	<path fill="#FCCEC8" d="M51.9,8.6c3.2-0.1,3.2-5.1,0-5c-1.7,0.1-3.5,0.1-5.2,0.2c-1,0-2.8,0.4-4.1,0.3c-0.9-0.7-2.2-0.8-3.2,0.1
		c0,0-0.1,0.1-0.1,0.1c-0.7,0.7-1,2.2-0.4,3C39,7.6,39.2,7.8,39.4,8c0.2,5.4,0.4,10.8,0.6,16.2c0.1,3.2,5.1,3.2,5,0
		c-0.1-2-0.2-4-0.2-6c1.9-0.1,3.8-0.3,5.7-0.7c3.2-0.6,1.8-5.4-1.3-4.8c-1.5,0.3-3,0.4-4.5,0.5l-0.2-4.3C46.9,8.8,49.4,8.7,51.9,8.6
		z"/>
	<path fill="#FCCEC8" d="M69.9,9.1c3.2-0.2,3.2-5.3,0-5C66,4.4,62.1,4.3,58.2,3.6c-2.5-0.4-3.8,2.4-2.8,4c0,0.1,0,0.2,0,0.3l0.2,8.9
		c0.1,2-0.3,4.4,0.4,6.3c1.7,4.3,8.5,1.9,11.8,1.5c3.2-0.4,3.2-5.4,0-5c-1.8,0.2-3.6,0.4-5.5,0.7c-0.2,0-1.1,0-1.6,0.1
		c0-0.5,0-0.9,0-1.4c0-0.9,0-1.7-0.1-2.6l3.5-0.1c3.2-0.1,3.2-5.1,0-5l-3.7,0.1l-0.1-2.4C63.6,9.3,66.7,9.4,69.9,9.1z"/>
	<path fill="#FCCEC8" d="M87.5,20.1c-2,0.2-4.2,0.7-6.3,0.8c0.1-0.9,0.1-2.4,0.1-2.4c0-0.3,0-0.6,0-0.9c1,0.2,2.1,0.3,3.2,0.3
		c3.2,0.1,3.2-4.9,0-5c-1.1,0-2.2-0.2-3.3-0.4c0-1,0-2-0.1-3c1.2-0.2,2.5-0.3,3.7-0.1c1.3,0.2,2.7-0.3,3.1-1.7
		c0.3-1.2-0.4-2.9-1.7-3.1c-2.4-0.3-4.7-0.3-7.1,0.2c-1.4-0.3-3,0.5-3,2.4c0.1,2.9,0.1,5.9,0.2,8.8c0,2.3-0.4,5.1,0.3,7.3
		c1.3,4.4,7.6,2.2,10.9,1.8C90.7,24.8,90.7,19.8,87.5,20.1z"/>
	<path fill="#FCCEC8" d="M105.2,19.6c-1.5,0.2-4.4,0.9-6.3,0.9c-0.5-1.8-0.2-4.7-0.3-6.3c-0.2-2.5-0.3-4.9-0.4-7.4
		c-0.1-3.2-5.1-3.2-5,0c0.1,2.9,0.3,5.7,0.5,8.6c0.2,2.3-0.1,5.3,0.7,7.5c1.4,4.2,7.8,2,10.9,1.7C108.4,24.2,108.4,19.2,105.2,19.6z
		"/>
	<path fill="#FCCEC8" d="M118.5,11.5c-1.5-0.3-5.7-0.2-4-3c1.1-1.8,3.5-1.8,5.1-0.8c2.8,1.7,5.3-2.7,2.5-4.3
		c-4.7-2.8-11.6-0.8-12.9,4.9c-0.6,2.5,0.3,5.2,2.5,6.6c1.2,0.8,2.7,1.1,4.1,1.3c0.5,0.1,1.9,0.1,2.2,0.4l-0.2,2
		c-0.8,0.5-1.6,0.5-2.5,0.2c-1-3-5.8-1.7-4.8,1.3c2.2,6.8,13.3,3.9,13.4-2.7C124,14.1,121.4,12.2,118.5,11.5z"/>
	<path fill="#FCCEC8" d="M158.1,19.6c-0.2-3.6-3-6.2-6.3-7.2c-1.5-0.5-5.6,0-6.7-0.8c-0.9-0.7,2.2-5.4,4.8-3.9
		c2.8,1.6,5.3-2.7,2.5-4.3c-5.8-3.3-12.9,2.4-12.6,8.8c0.1,2.8,2.4,4.1,5,4.4c2.2,0.3,4.8-0.1,6.8,1.1c4,2.6-1.9,5.4-3.6,2.6
		c-1.7-2.8-6-0.2-4.3,2.5C147,28.4,158.5,27.2,158.1,19.6z"/>
	<path fill="#FCCEC8" d="M171.5,7c-3.8-2.4-8.6-0.9-11,2.7c0,0,0,0,0,0c-0.5,0.3-0.9,0.7-1.2,1.5c-1.2,4.1-0.6,9.2,3.8,11
		c4.2,1.8,9.4-0.3,11.4-4.4C176.4,14,175,9.2,171.5,7z M170,15.8c-0.9,1.6-3.3,2.7-5,1.8c-1.6-0.9-1.4-3-1-4.6
		c0.3-0.2,0.6-0.4,0.8-0.8C167.1,8.7,171.8,12.5,170,15.8z"/>
	<path fill="#FCCEC8" d="M203.2,20.1c-3.5,0.9-8.7,1-8.4-4c0.2-3.3,3-6.2,6-7.2c3-1,1.7-5.9-1.3-4.8c-5.8,2-10.5,7.7-9.6,14.1
		c1,7.2,8.9,8.2,14.7,6.7C207.7,24.1,206.3,19.3,203.2,20.1z"/>
	<path fill="#FCCEC8" d="M219,8.7c-4-3-9.1-1.8-13,0.7c-1.2,0.8-1.4,2.1-0.9,3.2c-0.8,3.8,1.1,8.5,4.3,10.6c4,2.7,8.8,0.4,11.2-3.3
		C222.9,16.3,222.5,11.4,219,8.7z M216.7,16.7c-0.8,1.8-2.9,3.7-4.8,2.2c-1.7-1.3-2.4-4.1-1.7-6.1c0,0,0,0,0-0.1
		c1.5-0.7,3.1-1.2,4.7-0.6C217,12.9,217.5,14.8,216.7,16.7z"/>
	<path fill="#FCCEC8" d="M237.5,17.7c-1.8,0.2-3.5,0.4-5.3,0.6c-0.8,0.1-1.8,0.4-2.7,0.3c-0.2,0-0.2,0-0.3,0.1c0-0.1,0-0.4,0-0.8
		c-0.4-3.5-1-6.7-1.1-10.2c0-3.2-5-3.2-5,0c0,2.6,0.2,5.1,0.6,7.6c0.3,2,0.4,4.6,1.5,6.4c0.9,1.5,2.2,2,3.8,1.9
		c2.8-0.1,5.7-0.7,8.5-1C240.7,22.4,240.7,17.4,237.5,17.7z"/>
	<path fill="#FCCEC8" d="M259,11.4c-0.9-7.4-8.5-10.5-15.2-9.1c-1.6,0.3-2,1.7-1.7,2.9c0,0.2-0.1,0.4-0.1,0.6
		c-0.2,4.6,0.4,9.2,1.7,13.7c0.1,0.4,0.3,0.7,0.5,0.9c-0.3,1.5,0.4,3.1,2.3,2.9C252.9,22.5,260,19,259,11.4z M248.5,17.9
		c-1-3.6-1.5-7.2-1.5-10.9c3.3-0.1,6.8,1.6,7.1,5.3C254.4,15.6,251.4,17.2,248.5,17.9z"/>
	<path fill="#FCCEC8" d="M19.6,40.8c-0.6,3.6-1.1,7.1-1.5,10.7c-1-1.2-1.9-2.4-2.8-3.6c-1.1-1.5-3.2-1.7-4.3,0c-0.6,1-1.2,2-1.7,3
		c-1.2-3.2-2.2-6.4-3.2-9.7c-0.9-3.1-5.3-1.8-4.8,1.3c0,0.3,0.1,0.6,0.1,0.9c0.1,0.4,0.2,0.8,0.5,1.1c1.4,4.7,3.1,9.3,4.9,13.9
		c0.9,2.2,4.1,2.6,4.8,0c0.5-1.6,1.1-3.2,1.8-4.7c1.6,2,3.1,3.9,4.8,5.8c1.5,1.8,4.1,0.2,4.3-1.8c0.4-5.2,1-10.4,1.9-15.6
		C25,39,20.1,37.7,19.6,40.8z"/>
	<path fill="#FCCEC8" d="M32.2,46.5c-0.3-3.2-5.3-3.2-5,0c0.2,2.8,0.5,5.5,0.7,8.3c0.3,3.2,5.3,3.2,5,0C32.6,52,32.4,49.3,32.2,46.5
		z"/>
	<path fill="#FCCEC8" d="M30.4,35c-1.1-0.6-2.8-0.4-3.4,0.9c-0.1,0.2-0.2,0.4-0.3,0.7c-0.6,1.2-0.3,2.8,0.9,3.4
		c1.1,0.6,2.8,0.4,3.4-0.9c0.1-0.2,0.2-0.4,0.3-0.7C31.9,37.2,31.7,35.6,30.4,35z"/>
	<path fill="#FCCEC8" d="M50.2,36.7c-4.7,0.3-9.3,0.4-14,0.2c-3.2-0.1-3.2,4.9,0,5c1.3,0,2.6,0.1,3.9,0.1c0,0,0,0.1,0,0.1
		c-0.1,4.3-0.1,8.7,0.1,13c0.1,3.2,5.1,3.2,5,0c-0.2-4.3-0.2-8.7-0.1-13c0-0.1,0-0.1,0-0.2c1.7-0.1,3.4-0.1,5.2-0.2
		C53.4,41.5,53.4,36.5,50.2,36.7z"/>
	<path fill="#FCCEC8" d="M71.1,43.9c-0.3-2.6-0.7-4.8-2.5-6.8c-2.1-2.4-5.6,1.1-3.5,3.5c1.1,1.3,1.2,3.4,1.3,5.2
		c-2.2,0-4.4-0.1-6.6-0.3c-0.2-2.1-0.3-4.2-0.5-6.4c-0.2-3.2-5.2-3.2-5,0c0.1,2.3,0.3,4.6,0.5,6.9c-0.6,0.9-0.5,2.3,0.3,3.2
		c0.3,2.8,0.6,5.5,0.9,8.2c0.4,3.2,5.4,3.2,5,0c-0.3-2.3-0.5-4.7-0.8-7c2.1,0.2,4.3,0.3,6.4,0.3l0.4,4.7c0.3,3.2,5.3,3.2,5,0
		C71.7,51.6,71.5,47.7,71.1,43.9z"/>
	<path fill="#FCCEC8" d="M86.3,40.9c-3.3-3.3-7.7-2.3-10.9,0.4c-1.1-0.1-2.1,0.4-2.4,1.8c-0.7,3.8,0.5,7.8,3.6,10.3
		c3.5,2.9,7.6,2.2,10.2-1.5C89.2,48.6,89.3,43.9,86.3,40.9z M82.5,49.5c-2.1,2.3-4.2-1.2-4.6-3.7c0.2-0.1,0.3-0.2,0.5-0.4
		c1.4-1.3,3.4-2.5,4.8-0.5C84.1,46.3,83.5,48.3,82.5,49.5z"/>
	<path fill="#FCCEC8" d="M123.8,34.3c-4.5,1.1-9,1.6-13.7,1.5c-2,0-2.7,1.8-2.3,3.3c-1.2-1.4-4.3-0.8-4.5,1.7
		c-0.2,2.3,0.3,11-4,10.1c-4-0.8-2.7-8.5-2.3-11.1c0.5-3.1-4.3-4.5-4.8-1.3c-0.9,5.8-1.5,16.3,6.5,17.5c3.1,0.5,5.9-1.4,7.6-3.9
		c2.2-3.4,1.8-7.5,2.1-11.3c0-0.3,0-0.6-0.1-0.8c0.4,0.5,1,0.8,1.8,0.8c1.2,0,2.3,0,3.5,0c0.5,4.5,0.7,9.1,0.7,13.7c0,3.2,5,3.2,5,0
		c0-4.7-0.3-9.3-0.7-14c0,0,0-0.1,0-0.1c2.2-0.3,4.4-0.7,6.5-1.2C128.3,38.4,127,33.5,123.8,34.3z"/>
	<path fill="#FCCEC8" d="M157,54.5c-1.8-6.7-4.9-12.6-9.2-18c-1-1.3-3.2-0.8-3.9,0.5c-1.3,2.2-1.5,5-2.1,7.5
		c-0.7,3.1-1.4,6.2-2.1,9.3c-0.7,3.1,4.1,4.5,4.8,1.3l0.6-2.7c0,0,0.1,0,0.1,0c2,0.2,4,0.3,6,0.1c0.2,0.6,0.4,1.2,0.6,1.9
		c0,0.3-0.1,0.6,0,1c0,0.1,0,0.2,0.1,0.3c0.2,0.8,0.9,1.6,1.7,1.7c0.1,0,0.2,0,0.3,0.1C155.8,58,157.5,56.5,157,54.5z M146.2,47.6
		c0-0.1,0.1-0.3,0.1-0.4c0.2-1,0.4-2.2,0.6-3.3c0.8,1.3,1.5,2.6,2.2,3.9C148.1,47.7,147.1,47.6,146.2,47.6z"/>
	<path fill="#FCCEC8" d="M188,48.5c-1.2-3.2-4.1-4.4-7.3-4.2c-1.3,0.1-4.6,1-3.6-1.3c0.8-1.7,3.3-2,4.9-1.6c3.1,0.9,4.4-3.9,1.3-4.8
		c-5.1-1.4-12.3,2.1-11.6,8.1c0.3,2.8,2.7,4.3,5.3,4.6c1.5,0.2,3.2-0.5,4.6-0.1c1.8,0.4,2.2,1.8,0.7,2.8c-1,0.7-2.4,0.2-3.4-0.2
		c-2.9-1.4-5.4,2.9-2.5,4.3c2.9,1.4,6.3,1.8,9.1-0.2C187.8,54.2,188.9,51.2,188,48.5z"/>
	<path fill="#FCCEC8" d="M201.9,51.5c-1.4,0.2-3,0.7-4.5,0.8c-0.6-1.8-0.9-4.1-1.2-5.9c-0.5-2.6-0.8-5.3-1-8c-0.2-3.2-5.2-3.2-5,0
		c0.4,5.3,1.1,11,2.8,16c1.6,4.6,6.5,2.5,10.2,1.9C206.4,55.9,205,51.1,201.9,51.5z"/>
	<path fill="#FCCEC8" d="M214.9,40.1c-3.1-1.3-6.3-0.6-8.7,1.3c-1.3-0.1-2.8,0.7-3,2.4c-0.4,4.4,1.6,9.1,5.9,10.8
		c4.1,1.6,8.8,0,10.4-4.2C221,46.2,218.9,41.8,214.9,40.1z M214.7,49c-0.9,1.6-3.1,1.5-4.5,0.6c-1.1-0.8-1.7-2-1.9-3.2
		c1-1.4,2.7-2.3,4.4-1.7C214.5,45.2,215.7,47.2,214.7,49z"/>
	<path fill="#FCCEC8" d="M233.5,35.6l-11,0.7c-3.2,0.2-3.2,5.2,0,5c0.9-0.1,1.9-0.1,2.8-0.2c0.2,4.4,0.6,8.7,1.4,13
		c0.6,3.2,5.4,1.8,4.8-1.3c-0.7-4-1.1-8-1.3-12c1.1-0.1,2.1-0.1,3.2-0.2C236.7,40.4,236.7,35.4,233.5,35.6z"/>
	<path fill="#FCCEC8" d="M254,48.7c0.6-0.5,1-1.3,1-2c0-1.1-0.6-1.8-1.5-2.2c-0.2-2.2-0.4-4.4-0.6-6.6c-0.2-3.2-5.2-3.2-5,0
		c0.2,2,0.3,4.1,0.5,6.1c-1.2,0-2.4,0-3.7,0.1c-0.2,0-0.4,0-0.5,0.1c-0.2-2.1-0.5-4.2-0.9-6.3c-0.6-3.2-5.4-1.8-4.8,1.3
		c0.8,4.6,1.3,9.3,1.4,14c0.1,3.2,5.1,3.2,5,0c0-1.4-0.1-2.8-0.2-4.1c0,0,0,0,0.1,0c1.4-0.1,2.8-0.1,4.2-0.1
		c0.1,1.3,0.3,2.6,0.4,3.9c0.4,3.1,5.4,3.2,5,0C254.3,51.5,254.2,50.1,254,48.7z"/>
</g>
</svg>
