<?xml version="1.0" encoding="utf-8"?>
<!-- Generator: Adobe Illustrator 18.1.1, SVG Export Plug-In . SVG Version: 6.00 Build 0)  -->
<svg version="1.1" id="Layer_1" xmlns="http://www.w3.org/2000/svg" xmlns:xlink="http://www.w3.org/1999/xlink" x="0px" y="0px"
	 width="27px" height="12px" viewBox="0 0 27 12" enable-background="new 0 0 27 12" xml:space="preserve">
<path fill="#2CAA9D" d="M21,12c-1.6,0-3.1-0.6-4.2-1.7L13.5,7l-3.3,3.3C9.1,11.4,7.6,12,6,12c-3.3,0-6-2.7-6-6c0-3.3,2.7-6,6-6
	c1.6,0,3,0.6,4.2,1.7L13.5,5l3.3-3.3C17.9,0.6,19.4,0,21,0c3.3,0,6,2.7,6,6C27,9.3,24.3,12,21,12z M14.5,6l3.3,3.3
	c0.9,0.9,2,1.3,3.2,1.3c2.5,0,4.6-2.1,4.6-4.6c0-2.5-2.1-4.6-4.6-4.6c-1.2,0-2.4,0.5-3.3,1.4L14.5,6z M6,1.4C3.5,1.4,1.4,3.5,1.4,6
	c0,2.5,2.1,4.6,4.6,4.6c1.2,0,2.4-0.5,3.3-1.4L12.5,6L9.2,2.7C8.3,1.8,7.2,1.4,6,1.4z"/>
</svg>
