<?xml version="1.0" encoding="utf-8"?>
<!-- Generator: Adobe Illustrator 18.1.1, SVG Export Plug-In . SVG Version: 6.00 Build 0)  -->
<svg version="1.1" xmlns="http://www.w3.org/2000/svg" xmlns:xlink="http://www.w3.org/1999/xlink" x="0px" y="0px" width="180.2px"
	 height="71.9px" viewBox="0 0 180.2 71.9" enable-background="new 0 0 180.2 71.9" xml:space="preserve">
<g id="Layer_1">
	<g>
		<path id="button-background" fill="#AD3863" d="M179.2,21c-0.2-1.2-0.4-2.5-0.6-3.8c-0.1-2-0.3-3.9-0.8-5.7c-0.6-2.3-1.8-4.1-3.5-5.6
			c-0.5-0.7-1-1.4-1.6-2.1c-2-2-4.8-3.2-7.6-3.4C162.7,0,160,0,157.4,0c-15.9,0.1-31.8,0.3-47.7,0.5c-3.9,0-7.7,0.1-11.6,0.2
			C87.9,0.6,77.6,0.5,67.3,0.5c-9.6-0.1-19.2-0.1-28.8-0.2c-7,0-13.9-0.4-20.5,1.3c-1,0.1-1.9,0.2-2.9,0.4c-4-0.1-7.8,1.7-10.6,4.8
			C0.7,11.1,0,17.3,0,22.9C0,30.5,0.3,38,0.5,45.6C0.7,52.4,0.9,58.7,4,64.9c0.3,0.6,0.7,1.1,1.2,1.5c0.7,1,1.6,1.9,2.8,2.6
			c2.8,1.8,6.3,1.5,9.5,1.5c4,0.1,8,0.2,12,0.3c5.1,0.1,10.2,0.2,15.3,0.3c17,0.7,34,1,51,0.8c18-0.2,35.9-0.9,53.8-2.2
			c4.3-0.3,8.6-0.6,13-1c3.5-0.3,7.6-0.2,10.8-2.2c4.9-3.1,5.4-10.4,5.6-16.4c0,0,0-0.1,0-0.1C180.5,40.3,180.7,30.7,179.2,21z"/>
		<g>
			<path fill="#FCCEC8" d="M39.2,26.9c-3.3-0.1-6.6,0.3-9.9,1c-0.4,0.1-0.6,0.2-0.9,0.4c-0.8,0.2-1.6,0.8-1.6,1.9c0,2,0,4.1,0.1,6.1
				c-0.5,0.8-0.5,1.9,0.2,2.6c0.1,1.6,0.2,3.3,0.4,4.9c0.3,2.5,4.3,2.6,4,0c-0.2-1.4-0.3-2.9-0.4-4.3h5c2.6,0,2.6-4,0-4h-5.2
				c0-1.3-0.1-2.6-0.1-3.9c2.8-0.6,5.5-0.8,8.3-0.8C41.8,31,41.8,27,39.2,26.9z"/>
			<g>
				<path fill="#FCCEC8" d="M48.6,25c-1.1,0-2,0.9-2,2v0.3c0,1,0.9,2,2,2c1.1,0,2-0.9,2-2V27C50.6,26,49.6,25,48.6,25z"/>
				<path fill="#FCCEC8" d="M50,41.2c0.3,0.3,0.1-0.7,0.1-0.9c0-0.8,0-0.6,0-1.4c0-1.5,0-3,0-4.5c0-2.6-4-2.6-4,0c0,2.1,0,3.2,0,5.3
					c0,1.7,0,3.1,1.1,4.4C48.8,46,51.7,43.1,50,41.2z"/>
			</g>
			<path fill="#FCCEC8" d="M72.5,28.6c-0.1-2.6-4.1-2.6-4,0c0.1,3.5,0,7-0.4,10.5c-2.3-3.1-4.5-6.3-6.8-9.4
				c-0.5-1.9-3.8-1.7-3.9,0.7c-0.2,4.2-0.1,8.3,0.4,12.5c0.3,2.5,4.3,2.6,4,0c-0.2-2.1-0.4-4.2-0.4-6.4c2.1,2.9,4.2,5.8,6.3,8.8
				c0.9,1.2,3.3,1.4,3.7-0.5C72.3,39.4,72.8,34,72.5,28.6z"/>
			<path fill="#FCCEC8" d="M94.5,36.5c-1.4-5.7-7.3-8.6-12.7-9c-1.7-0.1-2.2,1.5-1.8,2.7V43c0,0.1,0,0.2,0,0.2
				c-0.7,1.2,0.3,3.4,2.3,3.1C87.2,45.5,96.1,42.9,94.5,36.5z M84.1,41.9V31.8c2.7,0.7,5.6,2.2,6.3,4.9
				C91.2,39.5,87.2,41.1,84.1,41.9z"/>
			<path fill="#FCCEC8" d="M120.9,34.8c-0.2-2.5-4.2-2.6-4,0c0.3,3.2,0.6,6.3,0.9,9.5c0.2,2.5,4.2,2.6,4,0
				C121.5,41.1,121.2,38,120.9,34.8z"/>
			<path fill="#FCCEC8" d="M118.6,25.5c-1.1,0-2,0.9-2,2V28c0,1,0.9,2,2,2c1.1,0,2-0.9,2-2v-0.5C120.6,26.5,119.7,25.5,118.6,25.5z"
				/>
			<path fill="#FCCEC8" d="M139.5,29c-3.9,0.5-7.8,0.7-11.8,0.7c-2.6,0-2.6,4,0,4c1.5,0,2.9,0,4.4-0.1c0.4,3.4,0.7,6.8,1,10.3
				c0.2,2.5,4.2,2.6,4,0c-0.3-3.5-0.6-7-1-10.5c1.1-0.1,2.3-0.2,3.4-0.4C142,32.6,142.1,28.6,139.5,29z"/>
			<path fill="#FCCEC8" d="M153.1,25.8c-0.1-2.6-4.1-2.6-4,0c0.2,3.4,0.3,6.8,0.5,10.2c0.1,2.6,4.1,2.6,4,0
				C153.5,32.6,153.3,29.2,153.1,25.8z"/>
			<path fill="#FCCEC8" d="M151.6,42.5c-2.6,0-2.6,4,0,4C154.2,46.5,154.2,42.5,151.6,42.5z"/>
		</g>
	</g>
</g>
<g id="Layer_1_copy" display="none">
	<g display="inline">
		<path fill="#752151" d="M179.2,21c-0.2-1.2-0.4-2.5-0.6-3.8c-0.1-2-0.3-3.9-0.8-5.7c-0.6-2.3-1.8-4.1-3.5-5.6
			c-0.5-0.7-1-1.4-1.6-2.1c-2-2-4.8-3.2-7.6-3.4C162.7,0,160,0,157.4,0c-15.9,0.1-31.8,0.3-47.7,0.5c-3.9,0-7.7,0.1-11.6,0.2
			C87.9,0.6,77.6,0.5,67.3,0.5c-9.6-0.1-19.2-0.1-28.8-0.2c-7,0-13.9-0.4-20.5,1.3c-1,0.1-1.9,0.2-2.9,0.4c-4-0.1-7.8,1.7-10.6,4.8
			C0.7,11.1,0,17.3,0,22.9C0,30.5,0.3,38,0.5,45.6C0.7,52.4,0.9,58.7,4,64.9c0.3,0.6,0.7,1.1,1.2,1.5c0.7,1,1.6,1.9,2.8,2.6
			c2.8,1.8,6.3,1.5,9.5,1.5c4,0.1,8,0.2,12,0.3c5.1,0.1,10.2,0.2,15.3,0.3c17,0.7,34,1,51,0.8c18-0.2,35.9-0.9,53.8-2.2
			c4.3-0.3,8.6-0.6,13-1c3.5-0.3,7.6-0.2,10.8-2.2c4.9-3.1,5.4-10.4,5.6-16.4c0,0,0-0.1,0-0.1C180.5,40.3,180.7,30.7,179.2,21z"/>
		<g>
			<path fill="#FCCEC8" d="M39.2,26.9c-3.3-0.1-6.6,0.3-9.9,1c-0.4,0.1-0.6,0.2-0.9,0.4c-0.8,0.2-1.6,0.8-1.6,1.9c0,2,0,4.1,0.1,6.1
				c-0.5,0.8-0.5,1.9,0.2,2.6c0.1,1.6,0.2,3.3,0.4,4.9c0.3,2.5,4.3,2.6,4,0c-0.2-1.4-0.3-2.9-0.4-4.3h5c2.6,0,2.6-4,0-4h-5.2
				c0-1.3-0.1-2.6-0.1-3.9c2.8-0.6,5.5-0.8,8.3-0.8C41.8,31,41.8,27,39.2,26.9z"/>
			<g>
				<path fill="#FCCEC8" d="M48.6,25c-1.1,0-2,0.9-2,2v0.3c0,1,0.9,2,2,2c1.1,0,2-0.9,2-2V27C50.6,26,49.6,25,48.6,25z"/>
				<path fill="#FCCEC8" d="M50,41.2c0.3,0.3,0.1-0.7,0.1-0.9c0-0.8,0-0.6,0-1.4c0-1.5,0-3,0-4.5c0-2.6-4-2.6-4,0c0,2.1,0,3.2,0,5.3
					c0,1.7,0,3.1,1.1,4.4C48.8,46,51.7,43.1,50,41.2z"/>
			</g>
			<path fill="#FCCEC8" d="M72.5,28.6c-0.1-2.6-4.1-2.6-4,0c0.1,3.5,0,7-0.4,10.5c-2.3-3.1-4.5-6.3-6.8-9.4
				c-0.5-1.9-3.8-1.7-3.9,0.7c-0.2,4.2-0.1,8.3,0.4,12.5c0.3,2.5,4.3,2.6,4,0c-0.2-2.1-0.4-4.2-0.4-6.4c2.1,2.9,4.2,5.8,6.3,8.8
				c0.9,1.2,3.3,1.4,3.7-0.5C72.3,39.4,72.8,34,72.5,28.6z"/>
			<path fill="#FCCEC8" d="M94.5,36.5c-1.4-5.7-7.3-8.6-12.7-9c-1.7-0.1-2.2,1.5-1.8,2.7V43c0,0.1,0,0.2,0,0.2
				c-0.7,1.2,0.3,3.4,2.3,3.1C87.2,45.5,96.1,42.9,94.5,36.5z M84.1,41.9V31.8c2.7,0.7,5.6,2.2,6.3,4.9
				C91.2,39.5,87.2,41.1,84.1,41.9z"/>
			<path fill="#FCCEC8" d="M120.9,34.8c-0.2-2.5-4.2-2.6-4,0c0.3,3.2,0.6,6.3,0.9,9.5c0.2,2.5,4.2,2.6,4,0
				C121.5,41.1,121.2,38,120.9,34.8z"/>
			<path fill="#FCCEC8" d="M118.6,25.5c-1.1,0-2,0.9-2,2V28c0,1,0.9,2,2,2c1.1,0,2-0.9,2-2v-0.5C120.6,26.5,119.7,25.5,118.6,25.5z"
				/>
			<path fill="#FCCEC8" d="M139.5,29c-3.9,0.5-7.8,0.7-11.8,0.7c-2.6,0-2.6,4,0,4c1.5,0,2.9,0,4.4-0.1c0.4,3.4,0.7,6.8,1,10.3
				c0.2,2.5,4.2,2.6,4,0c-0.3-3.5-0.6-7-1-10.5c1.1-0.1,2.3-0.2,3.4-0.4C142,32.6,142.1,28.6,139.5,29z"/>
			<path fill="#FCCEC8" d="M153.1,25.8c-0.1-2.6-4.1-2.6-4,0c0.2,3.4,0.3,6.8,0.5,10.2c0.1,2.6,4.1,2.6,4,0
				C153.5,32.6,153.3,29.2,153.1,25.8z"/>
			<path fill="#FCCEC8" d="M151.6,42.5c-2.6,0-2.6,4,0,4C154.2,46.5,154.2,42.5,151.6,42.5z"/>
		</g>
	</g>
</g>
</svg>
