<?xml version="1.0" encoding="utf-8"?>
<!-- Generator: Adobe Illustrator 18.1.1, SVG Export Plug-In . SVG Version: 6.00 Build 0)  -->
<svg version="1.1" id="Layer_1" xmlns="http://www.w3.org/2000/svg" xmlns:xlink="http://www.w3.org/1999/xlink" x="0px" y="0px"
	 width="33px" height="33px" viewBox="0 0 28.3 28.3" enable-background="new 0 0 28.3 28.3" xml:space="preserve">
<path fill="#65BEB1" d="M27.4,26.4l-1,1c-1.2,1.2-3.1,1.2-4.3,0L0.9,6.1c-1.2-1.2-1.2-3.1,0-4.3l1-1c1.2-1.2,3.1-1.2,4.3,0
	l21.3,21.3C28.5,23.3,28.5,25.2,27.4,26.4z"/>
<path fill="#65BEB1" d="M27.4,26.4l-1,1c-1.2,1.2-3.1,1.2-4.3,0L0.9,6.1c-1.2-1.2-1.2-3.1,0-4.3l1-1c1.2-1.2,3.1-1.2,4.3,0
	l21.3,21.3C28.5,23.3,28.5,25.2,27.4,26.4z"/>
<path fill="#65BEB1" d="M26.4,0.9l1,1c1.2,1.2,1.2,3.1,0,4.3L6.1,27.4c-1.2,1.2-3.1,1.2-4.3,0l-1-1c-1.2-1.2-1.2-3.1,0-4.3L22.2,0.9
	C23.3-0.3,25.2-0.3,26.4,0.9z"/>
<path fill="#65BEB1" d="M26.4,0.9l1,1c1.2,1.2,1.2,3.1,0,4.3L6.1,27.4c-1.2,1.2-3.1,1.2-4.3,0l-1-1c-1.2-1.2-1.2-3.1,0-4.3L22.2,0.9
	C23.3-0.3,25.2-0.3,26.4,0.9z"/>
</svg>
