<?xml version="1.0" encoding="utf-8"?>
<!-- Generator: Adobe Illustrator 18.1.1, SVG Export Plug-In . SVG Version: 6.00 Build 0)  -->
<svg version="1.1" id="Layer_1" xmlns="http://www.w3.org/2000/svg" xmlns:xlink="http://www.w3.org/1999/xlink" x="0px" y="0px"
	 width="28.7px" height="23.6px" viewBox="0 0 28.7 23.6" enable-background="new 0 0 28.7 23.6" xml:space="preserve">
<g>
	<path fill="#66C0B3" d="M11.1,1.1L6.5,6.3C6.2,6.6,5.9,6.7,5.5,6.7H1.6C0.7,6.7,0,7.4,0,8.3v6.8c0,0.9,0.7,1.6,1.6,1.6h3.6
		c0.4,0,0.8,0.1,1.1,0.4l4.9,5.5c1,0.9,2.6,0.2,2.6-1.1V2.2C13.7,0.9,12.1,0.2,11.1,1.1z"/>
</g>
<path fill="none" stroke="#66C0B3" stroke-width="3" stroke-linecap="round" stroke-miterlimit="10" d="M18.6,4.3
	c1.9,1.9,3.1,4.6,3.1,7.6c0,2.9-1.1,5.5-2.9,7.4"/>
<path fill="none" stroke="#66C0B3" stroke-width="3" stroke-linecap="round" stroke-miterlimit="10" d="M23,22.1
	c2.5-2.6,4.1-6.2,4.1-10.2c0-4.1-1.6-7.7-4.3-10.4"/>
</svg>
