<?xml version="1.0" encoding="utf-8"?>
<!-- Generator: Adobe Illustrator 18.1.1, SVG Export Plug-In . SVG Version: 6.00 Build 0)  -->
<svg version="1.1" id="Layer_1" xmlns="http://www.w3.org/2000/svg" xmlns:xlink="http://www.w3.org/1999/xlink" x="0px" y="0px"
	 width="214.3px" height="60.6px" viewBox="0 0 214.3 60.6" enable-background="new 0 0 214.3 60.6" xml:space="preserve">
<g>
	<path fill="#FCCEC8" d="M17.7,16.9c-0.5-3.7-3.2-6.1-6.8-6.4c-1.1-0.1-2.6,0.4-3.7,0.1c-1.4,0.3-2-0.5-1.8-2.2
		c0.2-0.4,0.5-0.8,0.9-1c1.5-1.7,4.2-1.5,5.9-0.4c2.6,1.7,5.1-2.5,2.5-4.2C8.9-1-1.6,3.3,0.2,11.1c1,4.4,5.4,4.3,9.1,4.4
		c1.2,0,2.4-0.2,3.2,0.9c0.6,0.9,0.6,2.4,0,3.3c-1.6,2.4-5.1,1.3-6.8-0.3c-2.3-2.2-5.8,1.3-3.5,3.5C7.7,28.1,18.9,26.1,17.7,16.9z"
		/>
	<path fill="#FCCEC8" d="M33.4,20.4c-1.9,0.3-3.9,0.4-5.9,0.1c-3.1-0.4-2.7-1.8-2.7-4.4c0-3.9,0-7.8,0-11.7c0-3.2-4.9-3.2-4.9,0
		c0,3.4,0,6.8,0,10.2c0,2.4-0.6,5.7,0.7,7.9c2.5,4.1,10.1,3.2,14,2.6C37.9,24.7,36.5,19.9,33.4,20.4z"/>
	<path fill="#FCCEC8" d="M45.6,2.3c-2.8-1.2-5.6-0.7-7.8,0.9c0,0-0.1,0-0.1,0c-5.9,1-5.6,8.7-2.6,12.3c3.7,4.4,10.4,4.3,13.9-0.2
		C52.4,11,50.6,4.5,45.6,2.3z M45.1,12.4c-1.4,1.7-3.8,2-5.5,0.7c-0.4-0.3-0.8-0.9-1.2-1.5c0.4-0.4,0.6-0.9,0.7-1.6
		c0.1-2.2,2.5-4.2,4.7-3.1C45.8,7.8,46.6,10.6,45.1,12.4z"/>
	<path fill="#FCCEC8" d="M66.1,1c-4.4-0.6-8.7-0.4-13,0.2C50,1.7,51.3,6.4,54.4,6c0.9-0.1,1.9-0.2,2.8-0.3c0.4,4.5,0.5,9,0.2,13.5
		c-0.1,1.2,0.6,1.9,1.4,2.2c0.3,0.2,0.7,0.3,1.1,0.3c1.3,0,2.1-0.9,2.3-1.9c0,0,0,0,0,0c0-0.1,0-0.1,0-0.2c0-0.1,0-0.2,0.1-0.4
		c0.2-4.5,0.2-9-0.2-13.5c0,0,0,0,0,0c1.3,0.1,2.7,0.2,4,0.3C69.3,6.3,69.2,1.4,66.1,1z"/>
	<path fill="#FCCEC8" d="M88.1,21c-0.6-5.3-1.3-10.6-1.9-16c-0.4-3.1-5.3-3.1-4.9,0c0.2,1.3,0.3,2.6,0.5,4c-1.9,0.1-3.9,0.2-5.8,0.3
		c0-2.1,0-4.1-0.1-6.2c-0.1-3.2-5-3.2-4.9,0c0.2,5.7,0.2,11.5-0.2,17.2c-0.2,3.2,4.7,3.1,4.9,0c0.1-2.1,0.2-4.1,0.3-6.2
		c2.2-0.1,4.3-0.2,6.5-0.4c0.3,2.4,0.6,4.7,0.8,7.1C83.6,24.1,88.5,24.2,88.1,21z"/>
	<path fill="#FCCEC8" d="M113.4,11.1c0-3.2-5-3.2-4.9,0c0.1,3.8,0.1,7.6,0.2,11.5c0,3.2,5,3.2,4.9,0
		C113.5,18.7,113.5,14.9,113.4,11.1z"/>
	<path fill="#FCCEC8" d="M110.2,0c-3.2,0-3.2,4.9,0,4.9C113.4,4.9,113.4,0,110.2,0z"/>
	<path fill="#FCCEC8" d="M127.8,12.3c-0.7-0.1-1.5-0.2-2.2-0.2c-1.4-0.1-3.7-0.7-3.9-2.6c-0.4-2.7,4.3-3.5,5.9-3.1
		c3.1,0.8,4.4-4,1.3-4.7c-5.7-1.5-12.3,2.3-12.2,8.7c0.1,3,1.9,5.3,4.8,6.2c1.6,0.5,3.9-0.2,5.4,0.5c3.1,1.4-2.9,4.5-3.8,2.5
		c-1.4-2.9-5.6-0.4-4.2,2.5c3,6.4,13.7,2.2,14.4-3.8C133.6,15,130.8,12.8,127.8,12.3z"/>
	<path fill="#FCCEC8" d="M33.4,54.8c-1.9,0.3-3.9,0.4-5.9,0.1c-3.1-0.4-2.7-1.8-2.7-4.4c0-3.9,0-7.8,0-11.7c0-3.2-4.9-3.2-4.9,0
		c0,3.4,0,6.8,0,10.2c0,2.4-0.6,5.7,0.7,7.9c2.5,4.1,10.1,3.2,14,2.6C37.9,59.1,36.5,54.3,33.4,54.8z"/>
	<path fill="#FCCEC8" d="M45.6,36.7c-2.8-1.2-5.6-0.7-7.8,0.9c0,0-0.1,0-0.1,0c-5.9,1-5.6,8.7-2.6,12.3c3.7,4.4,10.4,4.3,13.9-0.2
		C52.4,45.4,50.6,38.9,45.6,36.7z M45.1,46.8c-1.4,1.7-3.8,2-5.5,0.7c-0.4-0.3-0.8-0.9-1.2-1.5c0.4-0.4,0.6-0.9,0.7-1.6
		c0.1-2.2,2.5-4.2,4.7-3.1C45.8,42.2,46.6,45,45.1,46.8z"/>
	<path fill="#FCCEC8" d="M66.1,35.4c-4.4-0.6-8.7-0.4-13,0.2c-3.1,0.5-1.8,5.2,1.3,4.7c0.9-0.1,1.9-0.2,2.8-0.3
		c0.4,4.5,0.5,9,0.2,13.5c-0.1,1.2,0.6,1.9,1.4,2.2c0.3,0.2,0.7,0.3,1.1,0.3c1.3,0,2.1-0.9,2.3-1.9c0,0,0,0,0,0c0-0.1,0-0.1,0-0.2
		c0-0.1,0-0.2,0.1-0.4c0.2-4.5,0.2-9-0.2-13.5c0,0,0,0,0,0c1.3,0.1,2.7,0.2,4,0.3C69.3,40.7,69.2,35.8,66.1,35.4z"/>
	<path fill="#FCCEC8" d="M113.4,45.5c0-3.2-5-3.2-4.9,0c0.1,3.8,0.1,7.6,0.2,11.5c0,3.2,5,3.2,4.9,0
		C113.5,53.1,113.5,49.3,113.4,45.5z"/>
	<path fill="#FCCEC8" d="M110.2,34.4c-3.2,0-3.2,4.9,0,4.9C113.4,39.3,113.4,34.4,110.2,34.4z"/>
	<path fill="#FCCEC8" d="M127.8,46.6c-0.7-0.1-1.5-0.2-2.2-0.2c-1.4-0.1-3.7-0.7-3.9-2.6c-0.4-2.7,4.3-3.5,5.9-3.1
		c3.1,0.8,4.4-4,1.3-4.7c-5.7-1.5-12.3,2.3-12.2,8.7c0.1,3,1.9,5.3,4.8,6.2c1.6,0.5,3.9-0.2,5.4,0.5c3.1,1.4-2.9,4.5-3.8,2.5
		c-1.4-2.9-5.6-0.4-4.2,2.5c3,6.4,13.7,2.2,14.4-3.8C133.6,49.4,130.8,47.2,127.8,46.6z"/>
	<path fill="#FCCEC8" d="M162.4,54.3c-0.9,0.1-2.5,0-3.6,0.2c0.1-1-0.1-2.2-0.1-3.3l-0.4-11.2c-0.1-3.2-5-3.2-4.9,0
		c0.1,2.9,0.2,5.7,0.3,8.6c0.1,2.5-0.2,5.4,0.3,7.9c0.8,4.3,5.1,3.1,8.4,2.7C165.5,58.9,165.5,54,162.4,54.3z"/>
	<path fill="#FCCEC8" d="M173.3,55.8c-0.7-3-1-6.1-1.1-9.2c-0.1-3.2-5-3.2-4.9,0c0.1,3.5,0.5,7,1.3,10.5
		C169.2,60.2,174,58.9,173.3,55.8z"/>
	<path fill="#FCCEC8" d="M168.5,34.3c-3.2,0-3.2,4.9,0,4.9C171.7,39.3,171.7,34.3,168.5,34.3z"/>
	<path fill="#FCCEC8" d="M188.2,41.3c3.2,0,3.2-4.9,0-4.9c-3.3,0-6.6-0.1-9.8-0.1c-1.6,0-2.4,1.2-2.4,2.4c-1,0.4-1.7,1.5-1.4,2.8
		c1.2,4.9,2.3,9.9,3.4,14.8c0.3,1.2,1.1,1.7,2.1,1.8c0.1,0,0.2,0,0.3,0c1.6,0,2.4-1.2,2.4-2.5c0-0.2,0-0.4-0.1-0.6
		c-0.3-1.3-0.6-2.5-0.8-3.8c1.5,0,3-0.2,4.5-0.5c1.3-0.2,2-1.8,1.7-3c-0.4-1.4-1.7-2-3-1.7c-1.4,0.3-2.9,0.3-4.3,0.3
		c-0.4-1.7-0.8-3.4-1.2-5.1C182.5,41.2,185.3,41.3,188.2,41.3z"/>
	<path fill="#FCCEC8" d="M211.9,53.5c-2.5,0-5,0.1-7.5,0.1c-1.2,0-2.5,0-3.7,0.1c-0.6,0-1.2,0-1.9,0c-0.1,0-0.2,0-0.3,0
		c-0.3-1.2-0.4-2.8-0.3-4.2c2.3,0.2,4.5,0.3,6.8,0.3c3.2,0,3.2-4.9,0-4.9c-2.3,0-4.6-0.1-6.9-0.3c0-0.7,0-1.5,0-2.2
		c3.4-0.4,6.8-0.4,10.2-0.2c3.2,0.2,3.2-4.7,0-4.9c-3.4-0.2-6.8-0.1-10.3,0.3c-0.5,0.1-0.9,0.2-1.2,0.5c-1.4-0.7-3.6,0-3.6,2.1
		c0,3.4,0,6.7,0.3,10.1c0.2,2.2-0.1,5.4,1.4,7.1c1.5,1.7,3.8,1.4,5.8,1.3c3.7-0.1,7.5-0.1,11.2-0.2C215,58.4,215.1,53.5,211.9,53.5z
		"/>
	<path fill="#FCCEC8" d="M13.4,46.1c-2-0.7-4.3-0.3-6.3-0.8C5.7,45,5.4,45,6.3,43.8c0.9-1.1,2.8-1.2,3.9-0.7c2.9,1.3,5.5-3,2.5-4.3
		c-4.8-2.1-13.6,0.6-12,7.4c0.7,2.8,3.3,3.8,6,4.1c2,0.2,4.9-0.2,5.3,2.4c0.5,3.4-5.9,3.9-6.1,1.7c-0.3-3.2-5.3-3.2-5,0
		c0.8,7.9,13.7,8.4,15.9,1C17.7,52.4,16.6,47.2,13.4,46.1z"/>
	<path fill="#FCCEC8" d="M83.9,36.7c-0.8-3.1-5.7-1.8-4.8,1.3c0.7,2.7,0.9,5.6,0.9,8.5c-1.9,0.1-3.8-0.1-5.6-0.5c0-1.1,0-2.3,0-3.4
		c-0.1-3.2-5.1-3.2-5,0c0.1,4.1-0.1,8.2-0.5,12.2c-0.4,3.2,4.6,3.2,5,0c0.1-1.2,0.3-2.5,0.3-3.8c1.9,0.4,3.8,0.5,5.8,0.4
		c0,1.5,0,3,0.1,4.5c0.3,3.2,5.3,3.2,5,0C84.5,49.6,85.6,42.9,83.9,36.7z"/>
	<path fill="#FCCEC8" d="M162.6,19.6c-1.4,0-3.1,0.3-4.7,0.1c-0.2-2.1,0.2-4.5,0.2-6.5c0-2.7,0-5.4,0-8.1c0-3.2-5-3.2-5,0
		c0,2.7,0,5.4,0,8.1c0,2.7-0.4,5.8,0,8.5c0.7,4.1,6.5,3,9.5,3C165.8,24.5,165.8,19.5,162.6,19.6z"/>
	<path fill="#FCCEC8" d="M172.9,6.2c-2.7-2.5-8.3-3-11.1-0.4c-0.6,0.6-0.8,1.3-0.7,1.9c-1.8,3.4-1.1,7.8,2.2,10
		c3.1,2.2,7.5,1.7,10-1.2C175.9,13.5,175.9,8.9,172.9,6.2z M169.5,13.4c-2.2,2.3-5.4-0.7-4-3.3c0.2-0.3,0.3-0.6,0.3-0.9
		c1-0.3,3,0.2,3.6,0.6C170.6,10.6,170.4,12.4,169.5,13.4z"/>
	<path fill="#FCCEC8" d="M189.4,5.1c-0.9,3.4-1.7,6.9-2.6,10.3c-0.4-0.9-0.9-1.7-1.5-2.5c-1.6-2.2-3.2-4.2-3.9-6.8
		c-0.8-3.1-5.7-1.8-4.8,1.3c0.8,3.1,2.6,5.4,4.4,8c1.9,2.6,2.9,5.7,5,8.3c1.2,1.5,3.8,0.6,4.2-1.1c1.4-5.4,2.7-10.8,4.1-16.2
		C195,3.3,190.2,1.9,189.4,5.1z"/>
	<path fill="#FCCEC8" d="M210.3,18.9c-0.6,0.5-4.8,1.3-6.7,1.4c-0.2-1.7-0.2-3.5-0.3-5.2c1.5-0.1,3-0.1,4.5-0.2c3.2-0.1,3.2-5.1,0-5
		c-1.6,0.1-3.2,0.1-4.8,0.2c-0.1-0.8-0.1-1.7-0.2-2.5c2.2,0.3,4.4,0.2,6.6-0.2c1.3-0.2,2.1-1.9,1.7-3.1c-0.4-1.4-1.7-2-3.1-1.7
		C206.1,3,204,2.9,202,2.4c-0.8-0.2-1.5,0-2.1,0.5c-1.2,0-2.3,0.8-2.2,2.4l0.8,11c0.2,2.2-0.3,5.7,1.1,7.6c1.4,1.8,3.8,1.2,5.8,1
		c2.5-0.3,5.5-0.1,7.5-1.7C215.4,21.3,212.9,16.9,210.3,18.9z"/>
</g>
</svg>
