<?xml version="1.0" encoding="utf-8"?>
<!-- Generator: Adobe Illustrator 18.1.1, SVG Export Plug-In . SVG Version: 6.00 Build 0)  -->
<svg version="1.1" id="Layer_1" xmlns="http://www.w3.org/2000/svg" xmlns:xlink="http://www.w3.org/1999/xlink" x="0px" y="0px"
	 width="143.4px" height="99.1px" viewBox="0 0 143.4 99.1" enable-background="new 0 0 143.4 99.1" xml:space="preserve">
<g>
	<path fill="#AD3863" d="M35,77c-1.4,0-9.6-0.1-12.2-0.1c-2.6,0.2-5.2,0.5-7.8,0.8c-0.4,0-0.8,0.1-1.2,0.1c-2.1,0.5-6,0.9-6.9,3.1
		c0,0.1,0,0.2,0,0.2c-0.3,0.9,0.1,1.9,1.3,2.6c2.5,1.4,7.9,1.2,10.9,1.1c2.2,0,4.6-0.1,6.5-0.8c0.5,0,1,0,1.5,0
		c0.7,0.1,1.4,0.3,2.1,0.5c1.4,0.5,2.6-0.1,3.2-1.1c0.4-0.1,0.8-0.1,1.3-0.2c0.3-0.1,0.5-0.1,0.7-0.2c0.2,0,0.5,0,0.7,0
		C38.9,83.1,38.9,77,35,77z"/>
	<path fill="#F597A4" d="M51,29.3c-1.9-1.2-4.3-1.4-6.2-0.4c-1.1,0.3-1.9,0.9-2.5,1.6c-0.3,6.5-2,13-3,19.4
		c-0.3,1.9-0.7,3.9-1.4,5.6c-0.1,0.1-0.1,0.1-0.2,0.2c-3.1,5.1-9.5,5.9-13.8,1.9c0,0,0-0.1-0.1-0.1c-1.2-0.9-2-2.3-2.4-4.1
		c-0.4-2-0.7-15.3-1.4-17.6c-2.7-4.4-7.9-7.6-13.1-5.4c-2.1,0.9-3.7,2.7-3.3,5.1c0.2,1,0.6,1.9,1.1,2.7c0.1,0.2,0.3,0.3,0.5,0.5
		c0.4,0.7,1,1.3,1.7,1.8c0,0.1,0.1,0.3,0.1,0.4c0,1.1,0.8,12.4,0.8,13.4c0.1,1.5,0.2,2.8,0.5,4.1c0.1,0.1,0.2,0.3,0.2,0.5
		c0.2,0.6,0.3,1.3,0.4,2c0,0,0.1,0.1,0.1,0.1c0.1,0.1,0.2,0.2,0.3,0.3c2.8,6.6,12.3,10.7,20.9,10.5c2.7-0.1,5.6-0.5,8.2-1.3
		C51.5,68,56.3,53.7,55.9,43C56.5,37.9,55.9,32.3,51,29.3z"/>
	<path fill="#AD3863" d="M92.7,80.2c-2.3-1.9-6.2-2.2-9-2.7c-3.2-0.6-6.4-1-9.7-1.4c-12.3-1.5-24.8-1.5-36.8,1.4
		c-0.4-0.7-1.3-1.3-2.4-1.1c-1.7,0.3-5.1,1.2-7.2,2.8c-2.8,0.9-5.3,3.1-3.2,6.3c2.7,4.3,9.9,5.4,14.4,6.2c5.6,1,11.3,1.6,17,1.7
		c9.2,0.5,18.4-0.2,27.4-2c0.2,0,0.4-0.1,0.6-0.2c1.9-0.4,3.8-0.9,5.5-1.6C92.8,88.1,96.6,83.4,92.7,80.2z"/>
	<path fill="#F597A4" d="M48.8,82.3c2-0.3,3.9-1,4.8-2.6c0.4-0.6,0.5-1.2,0.5-1.7c0.7-0.6,1.2-1.5,1.1-2.7c-0.1-0.8-0.1-1.7-0.2-2.5
		c0.6-0.2,1.2-0.4,1.9-0.6c5.2-1.5,2.3-8-2.9-6.6C49.5,67,24.7,74.7,34.1,81C37.4,83.1,44.8,82.9,48.8,82.3z"/>
	<path fill="#FCCEC8" d="M88.9,50c0-3.4-0.1-6.8-0.4-10.2c0-0.2-0.1-0.4-0.1-0.6c-0.5-9.2-2.2-19.3-6.9-26.3c-0.6-1-1.3-2-2.2-2.9
		c-0.8-1.2-1.8-2.4-3-3.4c-1.8-1.5-4.1-2.6-6.5-3.2c-2.6-1.1-5.8-1.7-8.4-1C59.2,2.4,57,3.2,55,4.2c-10,3.9-12,13.9-13,23.3
		c-1.4,13.2-1.8,26.4-1.3,39.6c0,0.4,0.1,0.8,0.3,1.1c0.2,1.4,0.7,2.9,1,3.7c0.7,1.5,1.8,3.4,3.1,4.8c2.5,3.4,6.1,6.3,10.3,8
		c9.3,3.9,20.1,1.8,27.1-5.1c8.2-8,7.5-17.2,6.5-29.5C88.9,50.2,88.9,50.1,88.9,50z"/>
	<path fill="#FFFFFF" d="M73.5,20.2c-2.3-1.9-5.1-3-8.1-3.5c-3.4-0.9-6.9-1.1-10.2-0.3c-2.4,0.2-5.3,0.7-6.9,1.7
		c-3.5,0.8-5.1,7-5.3,9.9c-0.3,3.4-0.2,7.1,1.8,9.6c0.6,1.8,2.4,3,4.2,3.4c2.9,0.7,6.3,0.3,9.2,0.2c3.5,0,7,0,10.5-0.3
		c3.6-0.2,7-1.4,9.2-3.8c1.1-1,1.8-2.3,1.9-3.7c0.1-0.5,0.2-1.1,0.3-1.7C80.3,26.9,77.3,22.7,73.5,20.2z"/>
	<g>
		<g>
			<path fill="#752151" d="M77.1,24.1c-0.2-0.2-0.5-0.4-0.7-0.5c-0.1,0-0.1-0.1-0.2-0.1c-0.1,0-0.1-0.1-0.2-0.1
				c-0.6-0.4-1.3-0.7-2-0.9c0,0-0.1,0-0.1-0.1c-3.7-1.5-13.8-4.6-14.5,1.9c0,0.3,0,0.6,0.1,0.8c-0.1,0.6,0,1.1,0.1,1.6
				c0,0.1,0,0.2,0.1,0.3c0,0,0,0.1,0.1,0.1c0.2,0.6,0.5,1.1,1,1.6c1.4,1.5,3.6,2.5,5.5,3.1c2.9,0.9,11.1,3.5,13.4,0.2
				C80.9,30.2,79.4,25.2,77.1,24.1z"/>
			<path fill="#752151" d="M53.4,21.5c-0.7-0.8-1.6-1.1-2.6-1c0,0,0,0-0.1,0c-0.1,0-0.2,0-0.3-0.1c-1.3,0.4-2.5,0.9-3.7,1.6
				c-0.5,0.3-1.9,1.1-2.6,1.8c0,0.1-0.1,0.2-0.1,0.3c-1.1,1.3-0.9,4.1-0.7,5.6c0.1,0.7,0.4,1.4,1.1,1.6c0.2,0.1,0.4,0.1,0.6,0
				c0,0,0,0,0.1,0.1c0.1,0,0.2,0,0.3,0c0.2,0.1,0.4,0,0.6-0.1c1.4-0.3,3.1-0.8,4.5-1.6c0.2-0.1,0.4-0.2,0.6-0.3
				c0.6-0.3,1.1-0.8,1.5-1.3c0.3-0.2,0.6-0.5,0.8-0.8c0.5-0.6,0.8-1.4,0.8-2.2C54.6,24,54.2,22.5,53.4,21.5z"/>
			<path fill="#752151" d="M59.1,30.8c-0.5-1.1-1.3-1.9-2.4-2.3c-1.2-0.4-2.3-0.2-3.3,0.4c-0.2,0.1-0.3,0.2-0.4,0.4
				c-0.5,0.6-0.9,1.4-1,2c0,0.2,0,0.3,0.1,0.5c0,0.6,0.2,1.1,0.5,1.5c0.7,0.7,1.8,0.7,2.7,0.8c0.8,0.1,1.6-0.1,2.3-0.4
				C58.7,33.2,59.6,32,59.1,30.8z"/>
		</g>
	</g>
	<path fill="#FFFFFF" d="M53.3,23.6c-0.1-0.4-0.5-0.8-0.9-0.9c-1-0.2-2.1,0-2.5,1.1c-0.2,0.6,0,1.3,0.5,1.8c0,0,0,0,0,0
		c0.4,0.7,1.1,0.8,1.8,0.5C53.1,25.6,53.4,24.6,53.3,23.6z"/>
	<path fill="#FFFFFF" d="M63.5,23.5c-0.4-0.1-0.9,0.1-1.2,0.4c-0.8,0.8-0.5,2.4,0.5,2.9c0.6,0.3,1.2,0.2,1.6-0.1
		c0,0,0.1-0.1,0.1-0.1c0.1-0.1,0.2-0.1,0.2-0.2c0,0,0,0,0.1-0.1c0.2-0.3,0.4-0.5,0.4-0.9C65.5,24.3,64.5,23.4,63.5,23.5z"/>
	<path fill="#AD3863" d="M130.8,82.1c-4.6-0.7-9.3-1-13.9-1.1c-5.2-0.1-10.4,0.1-15.6,0.5c-4.4,0.3-9,0.6-12.8,2.2
		c-0.4,0.2-0.7,0.4-1,0.7c-3.1,0-4.1,3.4-0.7,4.1c9.5,2.1,19.9,2.1,29.8,2.1c4.5,0,9-0.3,13.4-1c2.9-0.5,7.5-1.3,7.8-3.8
		C138.2,83.1,133.6,82.5,130.8,82.1z"/>
	<path fill="#F597A4" d="M73,76.9c-0.3-0.8-0.7-1.5-1.2-2.1c0,0,0,0,0-0.1c-1.2-2-3.5-3.4-5.6-2.9c-0.8-0.1-1.6,0.1-2.4,0.4
		c-0.3,0.1-0.6,0.2-1,0.3c-4.6,1.9-16.4,6.9-13.2,12.4c1.5,2.6,5.1,2.5,8.2,2.6c4,0,8.1-0.3,12.1-0.9c0.8-0.1,1.5-0.5,2-1
		C74.7,83.8,74.1,79.9,73,76.9z"/>
	<path fill="#F597A4" d="M130.1,74.8c-4.2-2.2-10.1-0.9-14.7-0.9c-5.5,0-10.9-0.3-16.4-0.8C96.4,72,94.5,70.1,94,67
		c-0.1-0.4-0.2-0.7-0.4-0.9C92.8,58,91.7,49.9,90,41.9c-0.7-3.2-2.1-6.9-5.8-7.4c-2-0.3-3.7,0.6-4.7,2.2c-1.7,1.5-2.5,4-2.6,6.6
		c-0.3,6.3,1.4,13,2.4,19.2c0.8,5.2,1,12.1,4.1,16.7c2.3,4.4,6.3,5.6,11.1,6.1c6,0.6,12.1,0.5,18.1,0c2.2,0,4.5-0.1,6.7-0.3
		c0.3,0,0.7-0.1,1-0.1c0.7,0,1.5-0.1,2.2-0.2c0.3,0,0.7-0.1,1-0.1c3.3,0,7.6-0.4,9.4-2.7C134.9,79.3,132.5,76.1,130.1,74.8z"/>
	<path fill="#FFFFFF" d="M135.3,80.6c-1.4-0.8-3-1.2-4.6-1c-1.7,0.1-1.7,2.7,0,2.6c1.2-0.1,2.2,0.1,3.3,0.7
		C135.4,83.6,136.8,81.4,135.3,80.6z"/>
	<path fill="#FFFFFF" d="M135.1,76.4c-1.5-0.9-3.1-1.1-4.8-0.8c-0.7,0.1-1.1,1-0.9,1.6c0.2,0.7,0.9,1,1.6,0.9c1-0.2,1.9,0.1,2.8,0.6
		C135.3,79.5,136.6,77.2,135.1,76.4z"/>
	<path fill="#FFFFFF" d="M6.1,33.4c-0.8-0.6-1.5-1.4-2.2-2.1c-0.4-0.5-1.4-0.5-1.8,0c-0.5,0.5-0.4,1.3,0,1.8
		c0.7,0.8,1.4,1.5,2.2,2.1c0.6,0.4,1.3,0.5,1.8,0C6.6,34.8,6.7,33.9,6.1,33.4z"/>
	<path fill="#FFFFFF" d="M9.8,30.7c-1.1-0.9-2-1.9-2.8-3.1c-0.9-1.4-3.2-0.1-2.3,1.3c0.9,1.4,1.9,2.6,3.2,3.6c0.6,0.4,1.3,0.5,1.8,0
		C10.2,32.1,10.3,31.1,9.8,30.7z"/>
	<path fill="#93FADC" d="M20,7.6c0.6-1.4,0.6-3-0.3-4.8c-2.4-4.9-7.1-2.6-9.5,1c-0.3-0.4-0.6-0.9-1-1.3c0,0,0-0.1,0-0.1
		C6.8-1.2,1.2-0.7,0.2,3.7C-0.2,5.3,0,6.6,0.6,7.8c0,0.2,0.1,0.3,0.1,0.5c1.1,2.1,3.2,3.9,4.8,5.6c1,1.1,2.1,2.7,3.7,3
		c1.4,0.3,2.5-0.6,3.4-1.4c0.2-0.1,0.3-0.3,0.5-0.4C16.1,13.3,19.5,10.5,20,7.6z"/>
	<path fill="#AD3863" d="M3.8,81c-0.7,0-1.3,0.6-1.3,1.3v0.1c0,0.7,0.6,1.3,1.3,1.3c0.7,0,1.3-0.6,1.3-1.3v-0.1
		C5.1,81.6,4.5,80.9,3.8,81z"/>
	<path fill="#AD3863" d="M7.7,85.9C7.1,85.8,6.5,85.5,6,85c-1.2-1.1-3.1,0.7-1.8,1.8c1,0.9,2.2,1.5,3.6,1.6C8.4,88.6,9,87.8,9,87.2
		C9,86.4,8.4,86,7.7,85.9z"/>
	<path fill="#AD3863" d="M20.8,86.9c-3,0-6,0.1-9,0.2c-1.7,0.1-1.7,2.7,0,2.6c3-0.1,6-0.2,9-0.2C22.4,89.5,22.4,86.9,20.8,86.9z"/>
	<path fill="#AD3863" d="M46.8,95.8c-7.5-0.2-14.5-2.2-21.1-5.8c-1.5-0.8-2.8,1.4-1.3,2.3c6.9,3.9,14.4,5.9,22.4,6.2
		C48.5,98.4,48.5,95.8,46.8,95.8z"/>
	<path fill="#AD3863" d="M56.5,96.5c-1.6-0.1-3.3-0.1-4.9-0.2c-1.7-0.1-1.7,2.5,0,2.6c1.6,0.1,3.3,0.1,4.9,0.2
		C58.2,99.2,58.2,96.5,56.5,96.5z"/>
	<path fill="#AD3863" d="M73.1,96.2c-4.2,0.2-8.4,0.3-12.6,0.3c-1.7,0-1.7,2.6,0,2.6c4.2,0.1,8.4,0,12.6-0.3
		C74.7,98.7,74.7,96.1,73.1,96.2z"/>
	<path fill="#AD3863" d="M78.8,95.6c-0.5-0.5-1.3-0.5-1.8,0l-0.1,0.1c-0.5,0.5-0.5,1.3,0,1.8c0.5,0.5,1.3,0.5,1.8,0
		c0,0,0.1-0.1,0.1-0.1C79.3,96.9,79.3,96.1,78.8,95.6z"/>
	<path fill="#AD3863" d="M138.8,89c-2.9,2.1-7.5,3.4-11,3.2c-1.7-0.1-1.7,2.5,0,2.6c4,0.1,9-1.2,12.3-3.6
		C141.5,90.3,140.2,88.1,138.8,89z"/>
	<path fill="#AD3863" d="M143.3,85.5c-0.1-0.6-0.6-1-1.1-1.1c-0.6-0.1-1.3,0.3-1.4,0.9c0,0.1,0,0.2,0,0.3c0,0,0,0,0,0
		c0,0,0,0.1,0,0.1c0,0,0,0,0,0c0,0.5,0.1,0.9,0.3,1.4c0.3,0.6,1.2,0.8,1.8,0.5c0.5-0.3,0.7-0.8,0.6-1.3
		C143.5,86,143.4,85.7,143.3,85.5z"/>
</g>
</svg>
